PathFileType	4	(X/Y/Z)	C:\Users\chris\Documents\GitHub\baseballds\vids\pitch5_Sports2D\pitch5_Sports2D_px_person03.trc
DataRate	CameraRate	NumFrames	NumMarkers	Units	OrigDataRate	OrigDataStartFrame	OrigNumFrames
30	30	11	22	m	30	37	149
Frame#	Time	Hip			RHip			RKnee			RAnkle			RBigToe			RSmallToe			RHeel			LHip			LKnee			LAnkle			LBigToe			LSmallToe			LHeel			Neck			Head			Nose			RShoulder			RElbow			RWrist			LShoulder			LElbow			LWrist		
		X1	Y1	Z1	X2	Y2	Z2	X3	Y3	Z3	X4	Y4	Z4	X5	Y5	Z5	X6	Y6	Z6	X7	Y7	Z7	X8	Y8	Z8	X9	Y9	Z9	X10	Y10	Z10	X11	Y11	Z11	X12	Y12	Z12	X13	Y13	Z13	X14	Y14	Z14	X15	Y15	Z15	X16	Y16	Z16	X17	Y17	Z17	X18	Y18	Z18	X19	Y19	Z19	X20	Y20	Z20	X21	Y21	Z21	X22	Y22	Z22
37	1.2333333333333334	1481.7491580913847	458.41919774399	0.0	1480.6069200329116	458.7567721810299	0.0	1481.48859550005	471.81409982138126	0.0	1483.1343060313566	484.04681446193354	0.0	1476.589041980488	486.89246773727115	0.0	1476.9454662233882	485.83144134554004	0.0	1484.9126943443575	485.76110624940884	0.0	1482.7511777578125	458.76879577462864	0.0	1482.9973195942875	472.3255649805923	0.0	1484.4433760570182	484.6101544506349	0.0	1478.694436349891	487.36860846018425	0.0	1479.6542891621107	487.1552792797782	0.0	1486.5198126772102	486.1306362522234	0.0	1481.6177646280987	439.8279997582276	0.0	1479.2537074012043	430.55427201805264	0.0	1477.8177391848683	436.5093459648108	0.0	1481.0260674131068	443.0193195521239	0.0	1480.7492586957792	450.58748004569924	0.0	1479.9095600284286	459.07905604230075	0.0	1484.1235841378689	442.72133688464487	0.0	1484.8920799924401	451.05975012383857	0.0	1482.5168284807132	459.75093055481307	0.0
38	1.2666666666666666	1482.22322584021	458.58695554242667	0.0	1481.0589673222412	458.9170908204042	0.0	1481.9310909522335	472.1449595343785	0.0	1483.5970975141527	484.560729657655	0.0	1477.111640117051	487.4996243170963	0.0	1477.4350161216973	486.4574133595975	0.0	1485.289124264108	486.35363812616924	0.0	1483.269441861022	458.96211639275106	0.0	1483.2673942498238	472.6391107935726	0.0	1484.722391533721	485.0626128757241	0.0	1479.08693798268	487.84952390695696	0.0	1480.1477428412832	487.6071988930031	0.0	1486.8570937038667	486.58223226082436	0.0	1482.034382214987	439.96198545895055	0.0	1479.61085900756	430.5348106125746	0.0	1478.1814684461579	436.52030856501585	0.0	1481.448768506026	443.216485700228	0.0	1480.9662077737316	450.7874043276532	0.0	1480.1946395323207	459.6592418062215	0.0	1484.6249874471398	443.0298521275851	0.0	1485.3000981618093	451.51746592688596	0.0	1482.9776354460778	460.34138920772165	0.0
39	1.3	1482.682012023723	458.8166496616916	0.0	1481.4790881502915	459.1145717814633	0.0	1482.363057798122	472.4920138764485	0.0	1484.025859180789	484.90418231093895	0.0	1477.6131870196	487.96104657797247	0.0	1477.8799927023942	487.0206008490522	0.0	1485.707754852663	486.91931295226965	0.0	1483.665916897312	459.1762118405717	0.0	1483.7101896134175	472.921628347908	0.0	1485.1114776987329	485.3760247469395	0.0	1479.6384460562724	488.3006191764932	0.0	1480.7162877779028	487.99420353625624	0.0	1487.3095463076597	487.0005712664392	0.0	1482.6131736517013	440.06411226166756	0.0	1480.1687443160815	430.66747632263923	0.0	1478.7391436615821	436.63454326859176	0.0	1481.8903702426865	443.39828512741843	0.0	1481.5174674486304	451.03771790315193	0.0	1481.037438890849	460.32097278668095	0.0	1485.1992847703293	443.196595699666	0.0	1485.9134201824395	451.88792854742064	0.0	1483.5644017837544	460.8559670325048	0.0
40	1.3333333333333333	1483.1259394793792	459.28619079446923	0.0	1481.9109407019723	459.5617358346317	0.0	1482.7404311354117	472.9570487989322	0.0	1484.4134885608755	485.2416216135855	0.0	1478.0418485536466	488.37220548995117	0.0	1478.2841110899835	487.50950911272486	0.0	1486.1053921172577	487.36345053191246	0.0	1484.0231519803294	459.6145699147884	0.0	1484.2766765604354	473.3256790874667	0.0	1485.5809918977266	485.71262448832283	0.0	1480.2481560839417	488.7682899265675	0.0	1481.2866511471407	488.4221827417353	0.0	1487.812799439622	487.38728172638787	0.0	1483.2230186292327	440.4435432890726	0.0	1480.7911451434272	431.1252737831711	0.0	1479.3708470477593	437.05068863517687	0.0	1482.4096954079073	443.8009648477905	0.0	1482.249966083797	451.5351586437191	0.0	1481.9941074759195	461.009284052132	0.0	1485.7863951594475	443.4953866240801	0.0	1486.551056065126	452.3543304217087	0.0	1484.1595359372102	461.4092814220342	0.0
41	1.3666666666666667	1483.5035927227655	459.8872716244605	0.0	1482.314716162089	460.17191813944976	0.0	1483.0521725071299	473.4915979487473	0.0	1484.7126382436331	485.6890733380276	0.0	1478.3990352675642	488.8295765479822	0.0	1478.6459261502923	487.87664736598725	0.0	1486.4193268321255	487.6945738080913	0.0	1484.4344722146468	460.239974399069	0.0	1484.8009435121369	473.8484664561008	0.0	1485.998524724741	486.13549564835625	0.0	1480.647350725737	489.226716263847	0.0	1481.730588019463	488.9345615576641	0.0	1488.2122388440366	487.76928864343313	0.0	1483.7245549835395	441.0075019258158	0.0	1481.3430360385844	431.6367448432247	0.0	1479.9324912633588	437.57545292949135	0.0	1482.9723783335999	444.37419936241537	0.0	1482.6497585280285	452.1625738237057	0.0	1482.4166997363325	461.57449398717654	0.0	1486.303443326328	444.0003570195523	0.0	1487.0120247450595	452.9301715686842	0.0	1484.6557107658496	461.97478824473797	0.0
42	1.4	1483.7864388679154	460.5628557437336	0.0	1482.5983483793025	460.8529583015131	0.0	1483.345565115086	474.1426984868709	0.0	1484.9653783589295	486.32929370778754	0.0	1478.640383221793	489.4293968492152	0.0	1478.9049741390147	488.30729642054246	0.0	1486.7462160375876	488.1797251672605	0.0	1484.7898628893422	460.9748489734971	0.0	1485.216922249515	474.5132560262349	0.0	1486.387985118322	486.7296015172021	0.0	1480.78608731732	489.79222957032727	0.0	1481.9828537153558	489.5943766744522	0.0	1488.5271302207334	488.3452779893207	0.0	1484.1294392131351	441.6594649805297	0.0	1481.808559326203	432.2117134818978	0.0	1480.3380259963083	438.2274743240386	0.0	1483.4246484191344	445.05193422567413	0.0	1482.8325367645043	452.8766431383536	0.0	1482.5137792844096	462.1138921211113	0.0	1486.6731097744512	444.6508272889008	0.0	1487.3291211697626	453.573293860269	0.0	1485.0133034884334	462.55862619412795	0.0
43	1.4333333333333333	1484.0703596570143	461.3356969840588	0.0	1482.8263657142554	461.6158311951358	0.0	1483.672583142411	474.92914018336614	0.0	1485.2883050287137	487.1534581912836	0.0	1478.7925602172525	490.174910439467	0.0	1479.081561981149	488.9814134150686	0.0	1487.1655851850155	488.95208807515826	0.0	1485.0274916639494	461.77036790070935	0.0	1485.5481674291823	475.34012082267316	0.0	1486.816910161296	487.54461634302595	0.0	1480.918953051652	490.5481473611567	0.0	1482.131986861773	490.3984931788081	0.0	1488.8900576967512	489.17745171479544	0.0	1484.4901530371224	442.4007923639406	0.0	1482.2406607920389	433.0195724844415	0.0	1480.5975085340867	439.1083674989819	0.0	1483.7632652785376	445.81953541073136	0.0	1483.2865807798921	453.69655922956565	0.0	1482.7608696528728	462.74828225333005	0.0	1486.8850087549276	445.3987105835535	0.0	1487.60807723361	454.2841687759898	0.0	1485.2523992923948	463.2235446944819	0.0
44	1.4666666666666666	1484.469300777362	462.0420370519371	0.0	1483.139993978468	462.31690443829973	0.0	1483.999449650999	475.61117610594806	0.0	1485.6813145654614	487.9648059829141	0.0	1478.9669014222156	490.9274577891829	0.0	1479.283693818184	489.75808306564994	0.0	1487.5611537365407	489.77674039000436	0.0	1485.3634359669813	462.4508182009731	0.0	1485.8606188094611	476.10521877086995	0.0	1487.2320214514605	488.40072676140664	0.0	1481.3790977216665	491.3131779189447	0.0	1482.368253959496	491.1507625202666	0.0	1489.3287494191018	490.00470887889526	0.0	1484.8417967174091	443.083970628428	0.0	1482.6586707530064	433.8234531563387	0.0	1480.8254630009794	439.916035487101	0.0	1484.0610438655458	446.47583818922817	0.0	1483.8068623829508	454.4289465639124	0.0	1482.9484453839407	463.2723283000793	0.0	1487.0965581661171	446.09540053717717	0.0	1487.9212657448236	454.97674511556846	0.0	1485.505358785918	463.8831896879726	0.0
45	1.5	1484.9567723118087	462.51437705384757	0.0	1483.5449622278734	462.7736807692116	0.0	1484.2944865403315	476.01805538753507	0.0	1486.047275215859	488.5689914025529	0.0	1479.2139678602782	491.54189704037447	0.0	1479.568596953559	490.40108087775593	0.0	1487.8092343954577	490.4146865424442	0.0	1485.9517941689114	462.86872923755175	0.0	1486.2670146808834	476.56869017250716	0.0	1487.593323696661	489.0472508645406	0.0	1482.2345701908184	491.88075898306187	0.0	1482.7947699895979	491.66902702459515	0.0	1489.7722868028868	490.59582433634756	0.0	1485.2545247679252	443.541066067764	0.0	1483.0866622614299	434.2832352308483	0.0	1481.193319935708	440.3200576105511	0.0	1484.335434494075	446.8154157662962	0.0	1483.8998209483864	454.8581933778342	0.0	1482.7994012788363	463.510685500407	0.0	1487.5326159016163	446.54827701497766	0.0	1488.3477898465944	455.504127198521	0.0	1485.9433037063122	464.38937599920735	0.0
46	1.5333333333333332	1485.4062487499411	463.0182780213687	0.0	1483.9600205948655	463.2588314613372	0.0	1484.666342216266	476.45562652874094	0.0	1486.4098862629412	489.0472539313063	0.0	1479.546295448834	492.0339311716371	0.0	1479.9475206833336	490.9085441462662	0.0	1488.0296621609339	490.89602597977876	0.0	1486.5844596079812	463.322077505725	0.0	1486.8570519130228	476.98033728889226	0.0	1488.0124331842137	489.53196090553206	0.0	1483.1568364212803	492.32047647435616	0.0	1483.3698329725848	492.06275105551316	0.0	1490.19020966043	491.053086605677	0.0	1485.7978809650144	444.11363941515253	0.0	1483.6050658712993	434.77640697899386	0.0	1481.818681668901	440.76008558169235	0.0	1484.6663197778576	447.21871521946434	0.0	1483.9226702418014	455.2533090759411	0.0	1482.8460504693662	463.79990526121844	0.0	1488.2269127742363	446.9929249191812	0.0	1488.950354115091	455.96527418946295	0.0	1486.5894147962128	464.84505308719264	0.0
47	1.5666666666666667	1485.7920175345557	463.84962242876827	0.0	1484.4150459858552	464.12143563807837	0.0	1485.2319840498697	477.2188275139203	0.0	1486.8866382431545	489.6030490528653	0.0	1480.0032357829534	492.5454989603089	0.0	1480.419536442265	491.4488238388759	0.0	1488.4457217260908	491.353777478025	0.0	1487.0315373604549	464.1635953815182	0.0	1487.542394986228	477.7140331292293	0.0	1488.55578042213	490.10450364588934	0.0	1483.7371427507276	492.8276620847728	0.0	1483.9842357943612	492.55960771578214	0.0	1490.610280464451	491.5901017904289	0.0	1486.4269850260334	445.22611313782727	0.0	1484.177383199416	435.80962130014046	0.0	1482.559737863603	441.8016897840328	0.0	1485.1868283557362	448.1763589276903	0.0	1484.5865577304978	456.0280720426443	0.0	1483.6565696967157	464.53476410069345	0.0	1488.9645137683435	447.81338456449646	0.0	1489.6213761695774	456.5708661590337	0.0	1487.2412322106748	465.4468141406142	0.0
